<svg xmlns="http://www.w3.org/2000/svg" width="24" height="24" fill="none" xmlns:v="https://vecta.io/nano"><path d="M9 12.75L11.25 15 15 9.75M21 12c0 1.268-.63 2.39-1.593 3.068.104.593.063 1.202-.118 1.776s-.499 1.095-.925 1.52-.947.743-1.52.925-1.183.222-1.776.118c-.346.492-.805.894-1.339 1.172S12.602 21.001 12 21c-1.268 0-2.39-.63-3.068-1.593-.593.104-1.202.063-1.776-.119s-1.095-.499-1.52-.924-.743-.947-.925-1.52-.222-1.183-.118-1.776c-.492-.346-.894-.805-1.172-1.339S3 12.602 3 12c0-1.268.63-2.39 1.593-3.068-.104-.593-.063-1.202.118-1.776s.499-1.095.925-1.52.947-.743 1.52-.924 1.183-.222 1.776-.119c.346-.492.805-.894 1.339-1.172S11.398 3 12 3c1.268 0 2.39.63 3.068 1.593.593-.104 1.202-.063 1.775.119s1.095.499 1.521.924.743.947.924 1.52.222 1.183.119 1.776c.492.346.894.805 1.172 1.339S21.001 11.398 21 12z" stroke="#1e51e1" stroke-width="1.5" stroke-linecap="round" stroke-linejoin="round"/></svg>