<svg xmlns="http://www.w3.org/2000/svg" width="22" height="24" fill="#0056b9" xmlns:v="https://vecta.io/nano"><path d="M19.314 4.816a.74.74 0 0 1-.505-.196C16.602 2.608 13.77 1.5 10.834 1.5S5.066 2.608 2.859 4.621a.75.75 0 1 1-1.011-1.109C4.333 1.247 7.524 0 10.834 0s6.501 1.247 8.986 3.512a.75.75 0 0 1-.506 1.304zm1.27 4.901c-.241 0-.479-.116-.623-.332-2.082-3.1-5.494-4.951-9.127-4.951S3.789 6.285 1.707 9.385a.75.75 0 1 1-1.246-.836C2.822 5.034 6.7 2.935 10.834 2.935s8.012 2.099 10.373 5.615a.75.75 0 0 1-.623 1.167zM8.465 24a.75.75 0 0 1-.533-.222c-.164-.165-4.007-4.088-4.007-7.865 0-3.92 3.099-7.109 6.909-7.109s6.909 3.189 6.909 7.109a.75.75 0 1 1-1.5 0c0-3.093-2.426-5.609-5.409-5.609s-5.409 2.516-5.409 5.609c0 3.167 3.537 6.773 3.573 6.809a.75.75 0 0 1-.005 1.061c-.146.145-.337.217-.528.217zm4.738 0c-1.804 0-5.986-3.432-6.391-7.254-.143-1.351.287-2.733 1.149-3.697.75-.838 1.763-1.303 2.852-1.309h.021c1.062 0 2.066.417 2.83 1.176.798.793 1.237 1.858 1.237 2.998v.489c0 1.205.938 2.185 2.092 2.185s2.093-.98 2.093-2.185v-.171c0-4.67-3.383-8.555-7.702-8.843-2.252-.153-4.412.625-6.079 2.183-1.73 1.618-2.722 3.93-2.722 6.342a8.74 8.74 0 0 0 1.892 5.443.75.75 0 0 1-1.173.936c-1.431-1.791-2.22-4.057-2.22-6.38 0-2.826 1.166-5.537 3.197-7.437C6.252 6.63 8.81 5.712 11.482 5.891c5.104.341 9.103 4.883 9.103 10.34v.171c0 2.032-1.612 3.685-3.593 3.685S13.4 18.434 13.4 16.402v-.489c0-.738-.282-1.424-.794-1.934-.48-.478-1.109-.74-1.772-.74-.859.004-1.428.443-1.756.81-.585.653-.875 1.603-.776 2.539.331 3.118 3.914 5.913 4.9 5.913a.75.75 0 0 1 .75.75.75.75 0 0 1-.749.749zm2.783-1.467c-2.684 0-5.961-3.28-5.961-7.109a.75.75 0 1 1 1.5 0c0 2.968 2.495 5.609 4.461 5.609a.75.75 0 1 1 0 1.5z"/></svg>