<svg xmlns="http://www.w3.org/2000/svg" width="25" height="24" fill="none" xmlns:v="https://vecta.io/nano"><path d="M12.667 18v-5.25m0 0a6.01 6.01 0 0 0 1.5-.189m-1.5.189a6.01 6.01 0 0 1-1.5-.189m3.75 7.478a12.06 12.06 0 0 1-4.5 0m3.75 2.383c-.997.104-2.003.104-3 0M14.917 18v-.192c0-.983.658-1.823 1.508-2.316a7.5 7.5 0 0 0 3.485-8.436 7.5 7.5 0 0 0-7.243-5.554 7.5 7.5 0 0 0-7.243 5.554 7.5 7.5 0 0 0 3.485 8.436c.85.493 1.509 1.333 1.509 2.316V18" stroke="#1e51e1" stroke-width="1.5" stroke-linecap="round" stroke-linejoin="round"/></svg>