<svg xmlns="http://www.w3.org/2000/svg" width="27" height="26" fill="none" stroke="#0056b9" stroke-width="1.5" stroke-miterlimit="10" xmlns:v="https://vecta.io/nano"><path d="M17.349 4.123l-1.037-.566a3.21 3.21 0 0 1-1.268-1.268l-.566-1.038A.48.48 0 0 0 14.059 1a.47.47 0 0 0-.419.252L13.063 2.3c-.293.535-.723.964-1.258 1.258l-1.038.566c-.147.084-.241.252-.241.419a.48.48 0 0 0 .241.419l1.048.576c.524.283.954.723 1.247 1.247l.576 1.048a.48.48 0 0 0 .419.241.49.49 0 0 0 .419-.241l.566-1.038c.283-.534.723-.964 1.258-1.258l1.048-.576a.47.47 0 0 0 .252-.419.48.48 0 0 0-.252-.419zM13.367 17.8l-1.876-1.017a5.63 5.63 0 0 1-2.295-2.295l-1.017-1.876c-.157-.283-.461-.461-.765-.461a.85.85 0 0 0-.765.461l-1.038 1.897c-.524.964-1.321 1.75-2.285 2.274L1.44 17.81a.92.92 0 0 0-.44.765.87.87 0 0 0 .44.765l1.907 1.048c.954.524 1.74 1.31 2.264 2.264l1.048 1.907c.157.262.44.44.765.44a.9.9 0 0 0 .765-.44l1.027-1.886c.524-.964 1.31-1.75 2.274-2.285l1.897-1.038a.87.87 0 0 0 .461-.765c0-.304-.168-.608-.461-.765l-.021-.021zm12.44-4.884l-1.478-.796a4.46 4.46 0 0 1-1.803-1.803l-.797-1.478c-.115-.22-.356-.356-.597-.356a.67.67 0 0 0-.597.356l-.817 1.488a4.6 4.6 0 0 1-1.792 1.792l-1.488.807c-.21.115-.346.356-.346.597a.68.68 0 0 0 .346.597l1.499.817a4.48 4.48 0 0 1 1.782 1.782l.817 1.499c.115.21.346.346.597.346.241 0 .482-.136.597-.346l.807-1.488c.409-.755 1.027-1.383 1.792-1.792l1.488-.817a.67.67 0 0 0 .356-.597c0-.241-.136-.482-.356-.597l-.011-.011z"/></svg>