<svg xmlns="http://www.w3.org/2000/svg" width="18" height="24" fill="none" xmlns:v="https://vecta.io/nano"><path d="M17.68 9.08a2.24 2.24 0 0 0-2.06-1.314h-3.197l3.788-6.351c.172-.289.176-.649.01-.941S15.743 0 15.407 0H6.518c-.352 0-.675.198-.834.512L1.027 9.695a3.25 3.25 0 0 0 .126 3.198 3.25 3.25 0 0 0 2.792 1.563H7.22l-3.257 6.682a1.95 1.95 0 0 0 .618 2.48c.356.257.761.383 1.163.383.5 0 .996-.196 1.385-.58l.049-.052 7.251-8.345c.339-.39.298-.981-.092-1.32s-.981-.297-1.32.093l-7.222 8.312c-.028.024-.059.035-.119-.008-.074-.053-.055-.091-.032-.138l3.914-8.031c.141-.29.123-.632-.048-.906s-.471-.44-.793-.44H3.945c-.499 0-.936-.244-1.197-.67s-.281-.925-.053-1.372l4.398-8.671h6.667L9.971 8.222c-.172.289-.176.649-.01.941s.477.474.814.474h4.845c.224 0 .321.14.36.224s.083.255-.066.429c-.337.392-.292.983.1 1.32s.983.292 1.319-.1a2.25 2.25 0 0 0 .347-2.43z" fill="#0056b9"/></svg>